<svg xmlns="http://www.w3.org/2000/svg" xmlns:xlink="http://www.w3.org/1999/xlink" width="1400" zoomAndPan="magnify" viewBox="0 0 1050 449.999984" height="600" preserveAspectRatio="xMidYMid meet" version="1.0"><defs><g/></defs><g fill="#ffffff" fill-opacity="1"><g transform="translate(14.312419, 307.945524)"><g><path d="M 102.21875 -235.875 C 114.757812 -235.875 127.019531 -234.050781 139 -230.40625 C 150.976562 -226.757812 159.867188 -223.15625 165.671875 -219.59375 L 174.109375 -213.984375 L 152.765625 -171.859375 C 151.078125 -172.984375 148.734375 -174.429688 145.734375 -176.203125 C 142.742188 -177.984375 137.128906 -180.367188 128.890625 -183.359375 C 120.648438 -186.359375 112.972656 -187.859375 105.859375 -187.859375 C 97.066406 -187.859375 90.28125 -185.984375 85.5 -182.234375 C 80.726562 -178.492188 78.34375 -173.441406 78.34375 -167.078125 C 78.34375 -163.898438 79.46875 -160.953125 81.71875 -158.234375 C 83.96875 -155.523438 87.804688 -152.625 93.234375 -149.53125 C 98.660156 -146.445312 103.429688 -143.96875 107.546875 -142.09375 C 111.671875 -140.21875 118.035156 -137.410156 126.640625 -133.671875 C 141.617188 -127.304688 154.394531 -118.644531 164.96875 -107.6875 C 175.550781 -96.738281 180.84375 -84.335938 180.84375 -70.484375 C 180.84375 -57.191406 178.453125 -45.582031 173.671875 -35.65625 C 168.898438 -25.738281 162.347656 -17.972656 154.015625 -12.359375 C 145.691406 -6.742188 136.472656 -2.578125 126.359375 0.140625 C 116.253906 2.859375 105.304688 4.21875 93.515625 4.21875 C 83.398438 4.21875 73.472656 3.1875 63.734375 1.125 C 54.003906 -0.9375 45.863281 -3.507812 39.3125 -6.59375 C 32.757812 -9.6875 26.863281 -12.726562 21.625 -15.71875 C 16.382812 -18.71875 12.546875 -21.25 10.109375 -23.3125 L 6.453125 -26.390625 L 32.859375 -70.765625 C 35.097656 -68.890625 38.179688 -66.5 42.109375 -63.59375 C 46.046875 -60.695312 53.019531 -56.816406 63.03125 -51.953125 C 73.050781 -47.085938 81.898438 -44.65625 89.578125 -44.65625 C 111.859375 -44.65625 123 -52.234375 123 -67.390625 C 123 -70.578125 122.203125 -73.523438 120.609375 -76.234375 C 119.015625 -78.953125 116.203125 -81.664062 112.171875 -84.375 C 108.148438 -87.09375 104.59375 -89.25 101.5 -90.84375 C 98.414062 -92.4375 93.363281 -94.867188 86.34375 -98.140625 C 79.320312 -101.421875 74.128906 -103.898438 70.765625 -105.578125 C 56.722656 -112.503906 45.863281 -121.160156 38.1875 -131.546875 C 30.507812 -141.941406 26.671875 -153.132812 26.671875 -165.125 C 26.671875 -185.894531 34.347656 -202.878906 49.703125 -216.078125 C 65.054688 -229.273438 82.5625 -235.875 102.21875 -235.875 Z M 102.21875 -235.875 "/></g></g></g><g fill="#ffffff" fill-opacity="1"><g transform="translate(188.979013, 307.945524)"><g><path d="M 25.265625 -144.0625 L 25.265625 -174.671875 C 25.453125 -196.191406 30.503906 -213.410156 40.421875 -226.328125 C 50.347656 -239.253906 64.113281 -245.71875 81.71875 -245.71875 C 89.207031 -245.71875 96.367188 -244.640625 103.203125 -242.484375 C 110.035156 -240.328125 114.945312 -238.125 117.9375 -235.875 L 122.71875 -232.796875 L 105.3125 -197.6875 C 100.8125 -200.3125 95.847656 -201.625 90.421875 -201.625 C 84.242188 -201.625 80.125 -199.515625 78.0625 -195.296875 C 76.007812 -191.085938 74.984375 -183.742188 74.984375 -173.265625 L 74.984375 -144.0625 L 108.109375 -144.0625 L 108.109375 -106.140625 L 74.984375 -106.140625 L 74.984375 0 L 25.265625 0 L 25.265625 -106.140625 L 4.5 -106.140625 L 4.5 -144.0625 Z M 25.265625 -144.0625 "/></g></g></g><g fill="#ffffff" fill-opacity="1"><g transform="translate(280.243658, 307.945524)"><g><path d="M 25.265625 -144.0625 L 25.265625 -197.6875 L 74.984375 -197.6875 L 74.984375 -144.0625 L 105.3125 -144.0625 L 105.3125 -106.140625 L 74.984375 -106.140625 L 74.984375 -60.375 C 74.984375 -47.082031 78.722656 -40.4375 86.203125 -40.4375 C 88.078125 -40.4375 90.046875 -40.8125 92.109375 -41.5625 C 94.171875 -42.3125 95.757812 -43.0625 96.875 -43.8125 L 98.5625 -44.9375 L 110.921875 -4.78125 C 100.253906 1.21875 88.085938 4.21875 74.421875 4.21875 C 65.054688 4.21875 57.003906 2.582031 50.265625 -0.6875 C 43.523438 -3.96875 38.421875 -8.367188 34.953125 -13.890625 C 31.492188 -19.421875 29.015625 -25.226562 27.515625 -31.3125 C 26.015625 -37.394531 25.265625 -43.898438 25.265625 -50.828125 L 25.265625 -106.140625 L 4.5 -106.140625 L 4.5 -144.0625 Z M 25.265625 -144.0625 "/></g></g></g><g fill="#ffffff" fill-opacity="1"><g transform="translate(377.124572, 307.945524)"><g><path d="M 16.84375 -231.671875 L 83.96875 -231.671875 C 116.164062 -231.671875 143.679688 -220.671875 166.515625 -198.671875 C 189.359375 -176.671875 200.78125 -149.101562 200.78125 -115.96875 C 200.78125 -82.644531 189.40625 -54.984375 166.65625 -32.984375 C 143.914062 -10.992188 116.351562 0 83.96875 0 L 16.84375 0 Z M 69.640625 -47.171875 L 77.78125 -47.171875 C 97.0625 -47.171875 112.832031 -53.675781 125.09375 -66.6875 C 137.363281 -79.695312 143.59375 -96.03125 143.78125 -115.6875 C 143.78125 -135.351562 137.644531 -151.738281 125.375 -164.84375 C 113.113281 -177.945312 97.25 -184.5 77.78125 -184.5 L 69.640625 -184.5 Z M 69.640625 -47.171875 "/></g></g></g><g fill="#ffffff" fill-opacity="1"><g transform="translate(570.324902, 307.945524)"><g><path d="M 162.59375 -65.15625 L 58.125 -65.15625 C 58.125 -55.039062 61.398438 -47.546875 67.953125 -42.671875 C 74.503906 -37.804688 81.617188 -35.375 89.296875 -35.375 C 97.347656 -35.375 103.710938 -36.453125 108.390625 -38.609375 C 113.066406 -40.765625 118.40625 -45.023438 124.40625 -51.390625 L 160.34375 -33.421875 C 145.363281 -8.328125 120.460938 4.21875 85.640625 4.21875 C 63.929688 4.21875 45.304688 -3.222656 29.765625 -18.109375 C 14.222656 -32.992188 6.453125 -50.921875 6.453125 -71.890625 C 6.453125 -92.859375 14.222656 -110.828125 29.765625 -125.796875 C 45.304688 -140.773438 63.929688 -148.265625 85.640625 -148.265625 C 108.484375 -148.265625 127.066406 -141.664062 141.390625 -128.46875 C 155.710938 -115.269531 162.875 -96.410156 162.875 -71.890625 C 162.875 -68.515625 162.78125 -66.269531 162.59375 -65.15625 Z M 59.53125 -92.671875 L 114.296875 -92.671875 C 113.171875 -100.160156 110.21875 -105.914062 105.4375 -109.9375 C 100.664062 -113.957031 94.535156 -115.96875 87.046875 -115.96875 C 78.816406 -115.96875 72.265625 -113.816406 67.390625 -109.515625 C 62.523438 -105.210938 59.90625 -99.597656 59.53125 -92.671875 Z M 59.53125 -92.671875 "/></g></g></g><g fill="#ffffff" fill-opacity="1"><g transform="translate(725.615262, 307.945524)"><g><path d="M 53.359375 -144.0625 L 88.453125 -65.703125 L 123.5625 -144.0625 L 182.53125 -144.0625 L 105.3125 0 L 71.609375 0 L -5.609375 -144.0625 Z M 53.359375 -144.0625 "/></g></g></g><g fill="#ff3131" fill-opacity="1"><g transform="translate(888.495949, 307.945524)"><g><path d="M 48.859375 -60.09375 C 57.847656 -60.09375 65.476562 -56.957031 71.75 -50.6875 C 78.019531 -44.414062 81.15625 -36.785156 81.15625 -27.796875 C 81.15625 -19.003906 78.019531 -11.46875 71.75 -5.1875 C 65.476562 1.082031 57.847656 4.21875 48.859375 4.21875 C 40.054688 4.21875 32.519531 1.082031 26.25 -5.1875 C 19.976562 -11.46875 16.84375 -19.003906 16.84375 -27.796875 C 16.84375 -36.785156 19.976562 -44.414062 26.25 -50.6875 C 32.519531 -56.957031 40.054688 -60.09375 48.859375 -60.09375 Z M 48.859375 -60.09375 "/></g></g></g></svg>