<svg xmlns="http://www.w3.org/2000/svg" xmlns:xlink="http://www.w3.org/1999/xlink" width="1400" zoomAndPan="magnify" viewBox="0 0 1050 449.999984" height="600" preserveAspectRatio="xMidYMid meet" version="1.0"><defs><g/></defs><g fill="#000000" fill-opacity="1"><g transform="translate(28.62482, 319.166859)"><g><path d="M 102.203125 -235.875 C 114.742188 -235.875 127.003906 -234.046875 138.984375 -230.390625 C 150.972656 -226.742188 159.867188 -223.140625 165.671875 -219.578125 L 174.09375 -213.96875 L 152.75 -171.84375 C 151.0625 -172.96875 148.71875 -174.421875 145.71875 -176.203125 C 142.726562 -177.984375 137.113281 -180.367188 128.875 -183.359375 C 120.644531 -186.359375 112.972656 -187.859375 105.859375 -187.859375 C 97.054688 -187.859375 90.269531 -185.984375 85.5 -182.234375 C 80.726562 -178.492188 78.34375 -173.441406 78.34375 -167.078125 C 78.34375 -163.890625 79.460938 -160.9375 81.703125 -158.21875 C 83.953125 -155.507812 87.789062 -152.609375 93.21875 -149.515625 C 98.65625 -146.429688 103.429688 -143.953125 107.546875 -142.078125 C 111.660156 -140.210938 118.023438 -137.40625 126.640625 -133.65625 C 141.617188 -127.289062 154.394531 -118.632812 164.96875 -107.6875 C 175.539062 -96.738281 180.828125 -84.335938 180.828125 -70.484375 C 180.828125 -57.191406 178.441406 -45.582031 173.671875 -35.65625 C 168.898438 -25.738281 162.347656 -17.972656 154.015625 -12.359375 C 145.679688 -6.742188 136.460938 -2.578125 126.359375 0.140625 C 116.253906 2.859375 105.300781 4.21875 93.5 4.21875 C 83.394531 4.21875 73.472656 3.1875 63.734375 1.125 C 54.003906 -0.9375 45.863281 -3.507812 39.3125 -6.59375 C 32.757812 -9.6875 26.863281 -12.726562 21.625 -15.71875 C 16.382812 -18.71875 12.546875 -21.25 10.109375 -23.3125 L 6.453125 -26.390625 L 32.859375 -70.765625 C 35.097656 -68.890625 38.179688 -66.5 42.109375 -63.59375 C 46.046875 -60.695312 53.019531 -56.8125 63.03125 -51.9375 C 73.050781 -47.070312 81.898438 -44.640625 89.578125 -44.640625 C 111.847656 -44.640625 122.984375 -52.222656 122.984375 -67.390625 C 122.984375 -70.578125 122.1875 -73.523438 120.59375 -76.234375 C 119.007812 -78.953125 116.203125 -81.664062 112.171875 -84.375 C 108.148438 -87.09375 104.59375 -89.242188 101.5 -90.828125 C 98.414062 -92.421875 93.363281 -94.851562 86.34375 -98.125 C 79.320312 -101.40625 74.128906 -103.890625 70.765625 -105.578125 C 56.722656 -112.503906 45.863281 -121.160156 38.1875 -131.546875 C 30.507812 -141.941406 26.671875 -153.128906 26.671875 -165.109375 C 26.671875 -185.890625 34.34375 -202.878906 49.6875 -216.078125 C 65.039062 -229.273438 82.546875 -235.875 102.203125 -235.875 Z M 102.203125 -235.875 "/></g></g></g><g fill="#000000" fill-opacity="1"><g transform="translate(203.259251, 319.166859)"><g><path d="M 25.265625 -144.046875 L 25.265625 -174.65625 C 25.453125 -196.1875 30.503906 -213.410156 40.421875 -226.328125 C 50.347656 -239.242188 64.113281 -245.703125 81.71875 -245.703125 C 89.195312 -245.703125 96.351562 -244.625 103.1875 -242.46875 C 110.019531 -240.3125 114.9375 -238.113281 117.9375 -235.875 L 122.703125 -232.78125 L 105.296875 -197.6875 C 100.804688 -200.300781 95.847656 -201.609375 90.421875 -201.609375 C 84.242188 -201.609375 80.125 -199.5 78.0625 -195.28125 C 76 -191.070312 74.96875 -183.726562 74.96875 -173.25 L 74.96875 -144.046875 L 108.109375 -144.046875 L 108.109375 -106.140625 L 74.96875 -106.140625 L 74.96875 0 L 25.265625 0 L 25.265625 -106.140625 L 4.5 -106.140625 L 4.5 -144.046875 Z M 25.265625 -144.046875 "/></g></g></g><g fill="#000000" fill-opacity="1"><g transform="translate(294.505969, 319.166859)"><g><path d="M 25.265625 -144.046875 L 25.265625 -197.6875 L 74.96875 -197.6875 L 74.96875 -144.046875 L 105.296875 -144.046875 L 105.296875 -106.140625 L 74.96875 -106.140625 L 74.96875 -60.375 C 74.96875 -47.082031 78.710938 -40.4375 86.203125 -40.4375 C 88.078125 -40.4375 90.039062 -40.8125 92.09375 -41.5625 C 94.15625 -42.3125 95.75 -43.054688 96.875 -43.796875 L 98.5625 -44.921875 L 110.921875 -4.78125 C 100.242188 1.21875 88.070312 4.21875 74.40625 4.21875 C 65.050781 4.21875 57.003906 2.582031 50.265625 -0.6875 C 43.523438 -3.96875 38.421875 -8.367188 34.953125 -13.890625 C 31.492188 -19.421875 29.015625 -25.226562 27.515625 -31.3125 C 26.015625 -37.394531 25.265625 -43.898438 25.265625 -50.828125 L 25.265625 -106.140625 L 4.5 -106.140625 L 4.5 -144.046875 Z M 25.265625 -144.046875 "/></g></g></g><g fill="#000000" fill-opacity="1"><g transform="translate(391.368057, 319.166859)"><g><path d="M 16.84375 -231.65625 L 83.953125 -231.65625 C 116.148438 -231.65625 143.664062 -220.65625 166.5 -198.65625 C 189.34375 -176.664062 200.765625 -149.101562 200.765625 -115.96875 C 200.765625 -82.644531 189.390625 -54.984375 166.640625 -32.984375 C 143.898438 -10.992188 116.335938 0 83.953125 0 L 16.84375 0 Z M 69.640625 -47.171875 L 77.78125 -47.171875 C 97.0625 -47.171875 112.832031 -53.675781 125.09375 -66.6875 C 137.351562 -79.695312 143.578125 -96.03125 143.765625 -115.6875 C 143.765625 -135.34375 137.632812 -151.722656 125.375 -164.828125 C 113.113281 -177.929688 97.25 -184.484375 77.78125 -184.484375 L 69.640625 -184.484375 Z M 69.640625 -47.171875 "/></g></g></g><g fill="#000000" fill-opacity="1"><g transform="translate(584.533087, 319.166859)"><g><path d="M 162.578125 -65.140625 L 58.125 -65.140625 C 58.125 -55.035156 61.398438 -47.546875 67.953125 -42.671875 C 74.503906 -37.804688 81.617188 -35.375 89.296875 -35.375 C 97.347656 -35.375 103.710938 -36.453125 108.390625 -38.609375 C 113.066406 -40.765625 118.398438 -45.023438 124.390625 -51.390625 L 160.328125 -33.421875 C 145.359375 -8.328125 120.460938 4.21875 85.640625 4.21875 C 63.929688 4.21875 45.304688 -3.222656 29.765625 -18.109375 C 14.222656 -32.992188 6.453125 -50.914062 6.453125 -71.875 C 6.453125 -92.84375 14.222656 -110.816406 29.765625 -125.796875 C 45.304688 -140.773438 63.929688 -148.265625 85.640625 -148.265625 C 108.484375 -148.265625 127.0625 -141.664062 141.375 -128.46875 C 155.695312 -115.269531 162.859375 -96.410156 162.859375 -71.890625 C 162.859375 -68.515625 162.765625 -66.265625 162.578125 -65.140625 Z M 59.53125 -92.65625 L 114.28125 -92.65625 C 113.15625 -100.144531 110.207031 -105.898438 105.4375 -109.921875 C 100.664062 -113.953125 94.535156 -115.96875 87.046875 -115.96875 C 78.804688 -115.96875 72.253906 -113.8125 67.390625 -109.5 C 62.523438 -105.195312 59.90625 -99.582031 59.53125 -92.65625 Z M 59.53125 -92.65625 "/></g></g></g><g fill="#000000" fill-opacity="1"><g transform="translate(739.79462, 319.166859)"><g><path d="M 53.34375 -144.046875 L 88.453125 -65.703125 L 123.546875 -144.046875 L 182.515625 -144.046875 L 105.296875 0 L 71.609375 0 L -5.609375 -144.046875 Z M 53.34375 -144.046875 "/></g></g></g><g fill="#ff3131" fill-opacity="1"><g transform="translate(902.678699, 319.166859)"><g><path d="M 48.859375 -60.09375 C 57.847656 -60.09375 65.476562 -56.957031 71.75 -50.6875 C 78.019531 -44.414062 81.15625 -36.785156 81.15625 -27.796875 C 81.15625 -18.992188 78.019531 -11.457031 71.75 -5.1875 C 65.476562 1.082031 57.847656 4.21875 48.859375 4.21875 C 40.054688 4.21875 32.519531 1.082031 26.25 -5.1875 C 19.976562 -11.457031 16.84375 -18.992188 16.84375 -27.796875 C 16.84375 -36.785156 19.976562 -44.414062 26.25 -50.6875 C 32.519531 -56.957031 40.054688 -60.09375 48.859375 -60.09375 Z M 48.859375 -60.09375 "/></g></g></g></svg>